<?xml version="1.0" encoding="utf-8"?>
<!-- Generator: Adobe Illustrator 25.2.1, SVG Export Plug-In . SVG Version: 6.00 Build 0)  -->
<svg version="1.1" id="Camada_1" xmlns="http://www.w3.org/2000/svg" xmlns:xlink="http://www.w3.org/1999/xlink" x="0px" y="0px"
	 viewBox="0 0 1633.3 415.1" style="enable-background:new 0 0 1633.3 415.1;" xml:space="preserve">
<style type="text/css">
	.st0{fill:#FFFFFF;}
</style>
<path class="st0" d="M191.2,47.1h-81.5C49.1,47.1,0,96.3,0,156.9c0,0,0.2,78.1,0.5,96.5c0,1.1,0.9,1.9,2,1.9c0.4,0,0.8-0.1,1.1-0.4
	c10.6-8.2,43.6-35.3,80.7-85.8c30.5-41.5,42.6-63.2,47.3-73c2.3-4.8,5.6-9.2,9.6-12.8l4.9-4.4c1.3-1.2,3.4-1.1,4.6,0.3
	c0.4,0.4,0.7,1,0.8,1.6c1.1,5.9,2,17.7-0.6,40.2c-0.4,3.2,1.9,6.1,5.1,6.4c0.1,0,0.2,0,0.3,0c15.6,0.9,44.8,4.5,44.8,4.5
	c7.6,0.7,13.8,6.5,15,14.1l5.8,38.3c0.3,1.9,1.5,3.4,3.3,4.1l40.4,16.2c4,1.6,6,6.1,4.4,10.1c-0.2,0.5-0.5,1-0.8,1.5L248.6,247
	c-3.8,5.7-10.2,9.2-17.1,9.4c-11.4,0.2-29.4-0.4-45.2-4.7c-3.6-1-6-4.3-5.9-8c0.4-12.4-0.1-44.6-11-77.5c-0.2-0.6-0.8-0.9-1.4-0.7
	c-0.2,0.1-0.4,0.2-0.5,0.4c-2,2.8-6.3,8.4-9.1,12.6c-1.1,1.6-2.9,2.5-4.8,2.4l-21.1-1.5c-7.2-0.5-14.1,3.2-17.6,9.6l-10.3,18.7
	c-2.5,4.6-6.5,8-11,10.5c-2.3,1.3-3.2,4-2.3,6.4l7.7,18.6c0.7,1.8,2.2,3.1,4.1,3.7l18.2,5.6c3.5,1.1,5.5,4.9,4.4,8.4c0,0,0,0,0,0
	l-10,32.1c-5.3,17.1-28.8,39.9-36.8,47.6c-0.8,0.7-0.8,1.9,0,2.7c0.2,0.2,0.5,0.4,0.9,0.5c9.7,2.8,19.8,4.1,30,4.1h81.4
	c60.6,0,109.7-49.1,109.7-109.7v-81.5C301,96.3,251.8,47.1,191.2,47.1z"/>
<g>
	<path class="st0" d="M365.8,52.9h59.6v281.2h-59.6V52.9z"/>
	<path class="st0" d="M485.8,92.3c-6.9-6.3-10.3-14.1-10.3-23.5c0-9.3,3.4-17.2,10.3-23.5c6.9-6.3,15.8-9.5,26.8-9.5
		c11,0,19.9,3,26.8,9.1s10.3,13.6,10.3,22.7c0,9.9-3.4,18-10.3,24.4s-15.8,9.7-26.8,9.7C501.6,101.8,492.7,98.7,485.8,92.3z
		 M482.7,130.2h59.6v203.9h-59.6V130.2z"/>
	<path class="st0" d="M665,134.8h52.7v45.5h-51.2v153.9h-59.6V180.3h-31.7v-45.5h31.7v-9.1c0-23.2,6.9-41.7,20.8-55.3
		c13.9-13.6,33.4-20.5,58.7-20.5c8.9,0,17.4,0.9,25.4,2.8s14.7,4.6,20.1,8.1l-15.7,42.8c-6.9-4.8-14.9-7.2-24.1-7.2
		c-18.1,0-27.1,9.9-27.1,29.6V134.8z"/>
	<path class="st0" d="M947.1,248.9H791.5c2.8,12.6,9.4,22.6,19.9,29.9c10.4,7.3,23.4,11,39,11c10.7,0,20.2-1.6,28.5-4.7
		c8.3-3.2,16-8.1,23.1-15l31.7,34.1c-19.4,22-47.6,33-84.8,33c-23.2,0-43.7-4.5-61.5-13.5c-17.8-9-31.6-21.4-41.3-37.3
		c-9.7-15.9-14.5-34-14.5-54.2c0-20,4.8-38,14.3-54c9.6-16,22.7-28.5,39.4-37.5c16.7-9,35.3-13.5,56-13.5c20.1,0,38.3,4.3,54.6,12.9
		c16.3,8.6,29.1,20.9,38.4,37c9.3,16,13.9,34.7,13.9,55.9C948.2,233.7,947.8,239,947.1,248.9z M807.6,183.3
		c-9.2,7.6-14.8,17.9-16.8,31.1H892c-2-12.9-7.6-23.2-16.8-30.9c-9.2-7.7-20.4-11.6-33.6-11.6C828.1,171.9,816.7,175.7,807.6,183.3z
		"/>
	<path class="st0" d="M1163.6,140.3c15.7,8.7,28,21,36.9,36.8c8.9,15.8,13.4,34.2,13.4,55.1c0,21-4.5,39.4-13.4,55.1
		c-8.9,15.8-21.2,28-36.9,36.8c-15.7,8.7-33.1,13.1-52.2,13.1c-26.2,0-46.9-8.2-61.9-24.6v95.1h-59.6V130.2h56.9v23.5
		c14.8-17.7,36.3-26.5,64.6-26.5C1130.5,127.2,1147.9,131.6,1163.6,140.3z M1138.7,273.3c9.8-10.2,14.7-23.9,14.7-41.1
		c0-17.2-4.9-30.9-14.7-41.1c-9.8-10.2-22.4-15.3-37.6-15.3c-15.3,0-27.8,5.1-37.6,15.3c-9.8,10.2-14.7,23.9-14.7,41.1
		c0,17.2,4.9,30.9,14.7,41.1c9.8,10.2,22.4,15.3,37.6,15.3C1116.4,288.7,1128.9,283.5,1138.7,273.3z"/>
	<path class="st0" d="M1455.7,248.9h-155.5c2.8,12.6,9.4,22.6,19.9,29.9c10.4,7.3,23.4,11,39,11c10.7,0,20.2-1.6,28.5-4.7
		c8.3-3.2,16-8.1,23.1-15l31.7,34.1c-19.4,22-47.6,33-84.8,33c-23.2,0-43.7-4.5-61.5-13.5c-17.8-9-31.6-21.4-41.3-37.3
		c-9.7-15.9-14.5-34-14.5-54.2c0-20,4.8-38,14.3-54c9.6-16,22.7-28.5,39.4-37.5c16.7-9,35.3-13.5,56-13.5c20.1,0,38.3,4.3,54.6,12.9
		c16.3,8.6,29.1,20.9,38.4,37c9.3,16,13.9,34.7,13.9,55.9C1456.9,233.7,1456.5,239,1455.7,248.9z M1316.2,183.3
		c-9.2,7.6-14.8,17.9-16.8,31.1h101.3c-2-12.9-7.6-23.2-16.8-30.9c-9.2-7.7-20.4-11.6-33.6-11.6
		C1336.7,171.9,1325.4,175.7,1316.2,183.3z"/>
	<path class="st0" d="M1631.1,324.3c-5.9,4.3-13.1,7.5-21.6,9.7c-8.5,2.1-17.5,3.2-26.9,3.2c-24.5,0-43.4-6.2-56.8-18.6
		c-13.4-12.4-20.1-30.6-20.1-54.6v-83.8h-31.7v-45.5h31.7V85.1h59.6v49.6h51.2v45.5h-51.2v83c0,8.6,2.2,15.2,6.7,19.9
		c4.5,4.7,10.8,7,18.9,7c9.4,0,17.4-2.5,24.1-7.6L1631.1,324.3z"/>
</g>
</svg>
